<svg width="40" height="40" viewBox="0 0 40 40" fill="none" xmlns="http://www.w3.org/2000/svg">
<path d="M33.3333 34.1667H6.66659C4.83325 34.1667 3.33325 32.6667 3.33325 30.8333V9.16666C3.33325 7.33333 4.83325 5.83333 6.66659 5.83333H33.3333C35.1666 5.83333 36.6666 7.33333 36.6666 9.16666V30.8333C36.6666 32.6667 35.1666 34.1667 33.3333 34.1667Z" fill="#8CBCD6"/>
<path d="M29.1667 15.8333C30.5475 15.8333 31.6667 14.714 31.6667 13.3333C31.6667 11.9526 30.5475 10.8333 29.1667 10.8333C27.786 10.8333 26.6667 11.9526 26.6667 13.3333C26.6667 14.714 27.786 15.8333 29.1667 15.8333Z" fill="#B3DDF5"/>
<path d="M16.6667 13.3333L7.5 26.6667H25.8333L16.6667 13.3333Z" fill="#9AC9E3"/>
<path d="M25.8334 18.3333L19.1667 26.6667H32.5001L25.8334 18.3333Z" fill="#B3DDF5"/>
<path d="M31.6666 40C36.269 40 39.9999 36.269 39.9999 31.6667C39.9999 27.0643 36.269 23.3333 31.6666 23.3333C27.0642 23.3333 23.3333 27.0643 23.3333 31.6667C23.3333 36.269 27.0642 40 31.6666 40Z" fill="#F44336"/>
<path d="M34.3245 36.0854L36.092 34.3179L29.022 27.2479L27.2545 29.0154L34.3245 36.0854Z" fill="white"/>
<path d="M27.2479 34.3246L29.0154 36.0921L36.0854 29.0221L34.3179 27.2546L27.2479 34.3246Z" fill="white"/>
</svg>
