<svg width="50" height="50" viewBox="0 0 50 50" fill="none" xmlns="http://www.w3.org/2000/svg">
<g clip-path="url(#clip0_303_2)">
<rect x="-52" y="-86" width="400" height="400" fill="#F48221"/>
<path d="M2.00393 51.1991H47.9959C48.6101 51.1991 49.1829 50.9483 49.5672 50.5114C49.9012 50.1325 50.049 49.6517 49.9856 49.1579C48.9071 40.7556 43.7406 33.7539 36.6676 30.0209C33.6781 33.0104 29.551 34.862 25 34.862C20.4489 34.862 16.3217 33.0104 13.3323 30.0209C6.25923 33.7529 1.0917 40.7556 0.0141878 49.1579C-0.049231 49.6517 0.0995515 50.1335 0.432551 50.5114C0.816889 50.9483 1.38967 51.1991 2.00393 51.1991Z" fill="white"/>
<path d="M14.6365 28.2043C14.9049 28.4857 15.1851 28.7539 15.4752 29.0134C18.0092 31.2802 21.3414 32.6707 24.9999 32.6707C28.6585 32.6707 31.9907 31.279 34.5246 29.0134C34.8147 28.7539 35.0952 28.4855 35.3634 28.2043C35.6305 27.9228 35.8912 27.6349 36.1365 27.3327C38.1218 24.8743 39.3175 21.7524 39.3175 18.3534C39.3175 10.4581 32.8939 4.03564 24.9997 4.03564C17.1056 4.03564 10.6824 10.4591 10.6824 18.3532C10.6824 21.7522 11.8781 24.8743 13.8634 27.3325C14.1076 27.6349 14.3681 27.9218 14.6365 28.2043Z" fill="white"/>
</g>
<defs>
<clipPath id="clip0_303_2">
<rect width="50" height="50" rx="10" fill="white"/>
</clipPath>
</defs>
</svg>
